<svg xmlns="http://www.w3.org/2000/svg" viewBox="0 0 400 300" width="400" height="300">
<rect x="24" y="20" width="356" height="268" rx="6" fill="rgba(115,18,61,0.08)"/>
<rect x="22" y="16" width="356" height="268" rx="6" fill="#fff" stroke="#e2c3d1"/>
<text x="34" y="34" font-family="Lato, 'Helvetica Neue', Arial, sans-serif" font-size="7" font-weight="900" fill="#97144d" font-style="italic" letter-spacing="0.6">PRISM</text><text x="64" y="34" font-family="Lato, 'Helvetica Neue', Arial, sans-serif" font-size="9" font-weight="700" fill="#1d1418">Assumption grid</text>
<rect x="48" y="44" width="156" height="104" fill="#ffebf4"/><line x1="48" y1="44" x2="48" y2="258" stroke="#97144d" stroke-width="1.4" stroke-linecap="round"/><line x1="48" y1="258" x2="360" y2="258" stroke="#97144d" stroke-width="1.4" stroke-linecap="round"/><line x1="204" y1="44" x2="204" y2="258" stroke="#e2c3d1" stroke-width="1" stroke-dasharray="3 3" stroke-linecap="round"/><line x1="48" y1="148" x2="360" y2="148" stroke="#e2c3d1" stroke-width="1" stroke-dasharray="3 3" stroke-linecap="round"/><text x="54" y="56" font-family="Lato, 'Helvetica Neue', Arial, sans-serif" font-size="6.2" font-weight="900" fill="#97144d" letter-spacing="0.6">TEST FIRST</text><text x="210" y="56" font-family="Lato, 'Helvetica Neue', Arial, sans-serif" font-size="6.2" font-weight="900" fill="#8e8389" letter-spacing="0.6">BUILD ON IT</text><text x="54" y="160" font-family="Lato, 'Helvetica Neue', Arial, sans-serif" font-size="6.2" font-weight="900" fill="#8e8389" letter-spacing="0.6">PARK</text><text x="210" y="160" font-family="Lato, 'Helvetica Neue', Arial, sans-serif" font-size="6.2" font-weight="900" fill="#8e8389" letter-spacing="0.6">PARK</text><text transform="translate(40 148) rotate(-90)" font-family="Lato, 'Helvetica Neue', Arial, sans-serif" font-size="6" font-weight="900" fill="#97144d" text-anchor="middle" letter-spacing="0.6">IMPORTANT →</text><text x="204" y="269" font-family="Lato, 'Helvetica Neue', Arial, sans-serif" font-size="6" font-weight="900" fill="#97144d" text-anchor="middle" letter-spacing="0.6">NO EVIDENCE  ←→  EVIDENCE</text><rect x="68" y="66" width="16" height="16" fill="#fff1c9" stroke="rgba(0,0,0,0.06)" transform="rotate(-3 76 74)"/><rect x="96" y="78" width="16" height="16" fill="#fff1c9" stroke="rgba(0,0,0,0.06)" transform="rotate(4 104 86)"/><rect x="78" y="96" width="16" height="16" fill="#f8c2dd" stroke="rgba(0,0,0,0.06)" transform="rotate(-3 86 104)"/><rect x="234" y="70" width="16" height="16" fill="#fff1c9" stroke="rgba(0,0,0,0.06)" transform="rotate(4 242 78)"/><rect x="264" y="166" width="16" height="16" fill="#fff1c9" stroke="rgba(0,0,0,0.06)" transform="rotate(-3 272 174)"/><rect x="84" y="170" width="16" height="16" fill="#f8c2dd" stroke="rgba(0,0,0,0.06)" transform="rotate(4 92 178)"/>
</svg>