<svg xmlns="http://www.w3.org/2000/svg" viewBox="0 0 400 300" width="400" height="300">
<rect x="24" y="20" width="356" height="268" rx="6" fill="rgba(115,18,61,0.08)"/>
<rect x="22" y="16" width="356" height="268" rx="6" fill="#fff" stroke="#e2c3d1"/>
<text x="34" y="34" font-family="Lato, 'Helvetica Neue', Arial, sans-serif" font-size="7" font-weight="900" fill="#97144d" font-style="italic" letter-spacing="0.6">PRISM</text><text x="64" y="34" font-family="Lato, 'Helvetica Neue', Arial, sans-serif" font-size="9" font-weight="700" fill="#1d1418">Rose, bud, thorn</text>
<rect x="34" y="44" width="106.66666666666667" height="228" rx="4" fill="#fff5fa" stroke="#e2c3d1" stroke-width="1"/><circle cx="87.33333333333334" cy="62" r="7" fill="#f8c2dd" stroke="#97144d" stroke-width="1"/><path d="M84.33333333333334 62 q3 -5 6 0 q-3 4 -6 0" fill="none" stroke="#97144d" stroke-width="1" stroke-linecap="round" stroke-linejoin="round"/><text x="87.33333333333334" y="84" font-family="Lato, 'Helvetica Neue', Arial, sans-serif" font-size="8" font-weight="900" fill="#97144d" text-anchor="middle" letter-spacing="0.6">ROSE</text><rect x="48" y="98" width="16" height="16" fill="#fff1c9" stroke="rgba(0,0,0,0.06)" transform="rotate(-3 56 106)"/><rect x="106.66666666666669" y="114" width="16" height="16" fill="#f8c2dd" stroke="rgba(0,0,0,0.06)" transform="rotate(4 114.66666666666669 122)"/><rect x="58" y="140" width="16" height="16" fill="#fff1c9" stroke="rgba(0,0,0,0.06)" transform="rotate(2 66 148)"/><rect x="146.66666666666669" y="44" width="106.66666666666667" height="228" rx="4" fill="#e3f3ec" stroke="#e2c3d1" stroke-width="1"/><path d="M200.00000000000003 70 v-8 M200.00000000000003 62 q-6 -2 -4 -9 q4 2 4 9 q0 -7 4 -9 q2 7 -4 9" fill="none" stroke="#1e7a55" stroke-width="1.2" stroke-linecap="round" stroke-linejoin="round"/><text x="200.00000000000003" y="84" font-family="Lato, 'Helvetica Neue', Arial, sans-serif" font-size="8" font-weight="900" fill="#97144d" text-anchor="middle" letter-spacing="0.6">BUD</text><rect x="160.66666666666669" y="98" width="16" height="16" fill="#fff1c9" stroke="rgba(0,0,0,0.06)" transform="rotate(-3 168.66666666666669 106)"/><rect x="219.33333333333337" y="114" width="16" height="16" fill="#f8c2dd" stroke="rgba(0,0,0,0.06)" transform="rotate(4 227.33333333333337 122)"/><rect x="170.66666666666669" y="140" width="16" height="16" fill="#fff1c9" stroke="rgba(0,0,0,0.06)" transform="rotate(2 178.66666666666669 148)"/><rect x="259.33333333333337" y="44" width="106.66666666666667" height="228" rx="4" fill="#f8f1ec" stroke="#e2c3d1" stroke-width="1"/><path d="M304.6666666666667 66 h16 M309.6666666666667 66 l3 -9 l3 9" fill="none" stroke="#8a5a3c" stroke-width="1.4" stroke-linecap="round" stroke-linejoin="round"/><text x="312.6666666666667" y="84" font-family="Lato, 'Helvetica Neue', Arial, sans-serif" font-size="8" font-weight="900" fill="#97144d" text-anchor="middle" letter-spacing="0.6">THORN</text><rect x="273.33333333333337" y="98" width="16" height="16" fill="#fff1c9" stroke="rgba(0,0,0,0.06)" transform="rotate(-3 281.33333333333337 106)"/><rect x="332.00000000000006" y="114" width="16" height="16" fill="#f8c2dd" stroke="rgba(0,0,0,0.06)" transform="rotate(4 340.00000000000006 122)"/><rect x="283.33333333333337" y="140" width="16" height="16" fill="#fff1c9" stroke="rgba(0,0,0,0.06)" transform="rotate(2 291.33333333333337 148)"/>
</svg>